<?xml version="1.0" encoding="UTF-8" standalone="no"?>
<svg
   xmlns:dc="http://purl.org/dc/elements/1.1/"
   xmlns:cc="http://creativecommons.org/ns#"
   xmlns:rdf="http://www.w3.org/1999/02/22-rdf-syntax-ns#"
   xmlns:svg="http://www.w3.org/2000/svg"
   xmlns="http://www.w3.org/2000/svg"
   xmlns:sodipodi="http://sodipodi.sourceforge.net/DTD/sodipodi-0.dtd"
   xmlns:inkscape="http://www.inkscape.org/namespaces/inkscape"
   version="1.1"
   id="Layer_1"
   x="0px"
   y="0px"
   width="100px"
   height="100px"
   viewBox="0 0 100 100"
   enable-background="new 0 0 100 100"
   xml:space="preserve"
   inkscape:version="0.48.4 r9939"
   sodipodi:docname="outbox-symbolic.svg"><metadata
     id="metadata3001"><rdf:RDF><cc:Work
         rdf:about=""><dc:format>image/svg+xml</dc:format><dc:type
           rdf:resource="http://purl.org/dc/dcmitype/StillImage" /></cc:Work></rdf:RDF></metadata><defs
     id="defs2999" /><sodipodi:namedview
     pagecolor="#ffffff"
     bordercolor="#666666"
     borderopacity="1"
     objecttolerance="10"
     gridtolerance="10"
     guidetolerance="10"
     inkscape:pageopacity="0"
     inkscape:pageshadow="2"
     inkscape:window-width="922"
     inkscape:window-height="597"
     id="namedview2997"
     showgrid="false"
     inkscape:zoom="2.36"
     inkscape:cx="-27.966102"
     inkscape:cy="50"
     inkscape:window-x="499"
     inkscape:window-y="198"
     inkscape:window-maximized="0"
     inkscape:current-layer="Layer_1" /><path
     style="fill:#bebebe;fill-opacity:1"
     inkscape:connector-curvature="0"
     id="path2993"
     d="M 84,57.003 H 68 c -1.682,0 -3.185,1.052 -3.759,2.633 L 61.198,68 H 38.802 L 35.759,59.636 C 35.185,58.055 33.682,57.003 32,57.003 H 16 c -2.209,0 -4,1.791 -4,4 V 86 c 0,2.209 1.791,4 4,4 h 68 c 2.209,0 4,-1.791 4,-4 V 61.003 c 0,-2.209 -1.791,-4 -4,-4 z M 80,82 H 20 V 65.003 h 9.198 l 3.043,8.364 C 32.815,74.948 34.318,76 36,76 h 28 c 1.682,0 3.185,-1.052 3.759,-2.633 l 3.043,-8.364 H 80 V 82 z" /><path
     style="fill:#bebebe;fill-opacity:1"
     inkscape:connector-curvature="0"
     id="path2995"
     d="M 40.828,36.792 45.961,31.66 V 55 c 0,2.209 1.791,4 4,4 2.209,0 4,-1.791 4,-4 V 31.657 l 5.135,5.134 c 0.781,0.781 1.805,1.171 2.828,1.171 1.023,0 2.048,-0.391 2.828,-1.172 1.562,-1.562 1.562,-4.095 0,-5.657 L 52.794,19.177 C 52.606,18.988 52.398,18.819 52.174,18.671 52.108,18.627 52.035,18.598 51.966,18.558 51.809,18.466 51.653,18.374 51.483,18.304 51.397,18.268 51.307,18.251 51.218,18.221 51.059,18.168 50.903,18.111 50.735,18.078 50.618,18.055 50.498,18.055 50.379,18.042 50.239,18.027 50.104,18 49.961,18 c -0.156,0 -0.303,0.028 -0.454,0.046 -0.106,0.012 -0.212,0.011 -0.316,0.032 -0.183,0.036 -0.354,0.097 -0.526,0.156 -0.073,0.025 -0.148,0.039 -0.221,0.068 -0.192,0.079 -0.372,0.181 -0.549,0.289 -0.046,0.028 -0.096,0.047 -0.142,0.077 -0.229,0.152 -0.441,0.326 -0.634,0.521 L 35.172,31.134 c -1.562,1.562 -1.562,4.095 0,5.657 1.56,1.563 4.094,1.562 5.656,0.001 z" /></svg>