<?xml version="1.0" encoding="UTF-8" standalone="no"?>
<svg
   xmlns:dc="http://purl.org/dc/elements/1.1/"
   xmlns:cc="http://creativecommons.org/ns#"
   xmlns:rdf="http://www.w3.org/1999/02/22-rdf-syntax-ns#"
   xmlns:svg="http://www.w3.org/2000/svg"
   xmlns="http://www.w3.org/2000/svg"
   xmlns:sodipodi="http://sodipodi.sourceforge.net/DTD/sodipodi-0.dtd"
   xmlns:inkscape="http://www.inkscape.org/namespaces/inkscape"
   version="1.1"
   id="Layer_1"
   x="0px"
   y="0px"
   width="62.011745"
   height="63.27895"
   viewBox="0 0 62.011745 63.27895"
   enable-background="new 0 0 100 100"
   xml:space="preserve"
   inkscape:version="0.48.4 r9939"
   sodipodi:docname="sent-symbolic.svg"><metadata
     id="metadata13"><rdf:RDF><cc:Work
         rdf:about=""><dc:format>image/svg+xml</dc:format><dc:type
           rdf:resource="http://purl.org/dc/dcmitype/StillImage" /></cc:Work></rdf:RDF></metadata><defs
     id="defs11" /><sodipodi:namedview
     pagecolor="#ffffff"
     bordercolor="#666666"
     borderopacity="1"
     objecttolerance="10"
     gridtolerance="10"
     guidetolerance="10"
     inkscape:pageopacity="0"
     inkscape:pageshadow="2"
     inkscape:window-width="769"
     inkscape:window-height="556"
     id="namedview9"
     showgrid="false"
     inkscape:zoom="2.36"
     inkscape:cx="31.006353"
     inkscape:cy="31.64"
     inkscape:window-x="0"
     inkscape:window-y="24"
     inkscape:window-maximized="0"
     inkscape:current-layer="Layer_1"
     fit-margin-top="0"
     fit-margin-left="0"
     fit-margin-right="0"
     fit-margin-bottom="0" /><polygon
     points="184.184,-1905.931 190.434,-1914.316 210.604,-1906.722 219.939,-1966.209 160.927,-1926.815 176.272,-1920.012 "
     id="polygon3"
     style="fill:#000000;stroke:#ffec00"
     transform="translate(-18.993647,-18.361049)" /><polyline
     points="190.434,-1914.316 219.939,-1966.209 176.272,-1920.012 "
     id="polyline5"
     style="fill:none"
     transform="translate(-18.993647,-18.361049)" /><path
     d="m 61.319353,0.23695094 c -0.501,-0.322 -1.146,-0.315 -1.641,0.016 L 0.66735269,39.645951 c -0.455,0.304 -0.708,0.831 -0.662,1.376 0.046,0.545 0.387,1.021 0.887,1.243 l 14.89000031,6.602 7.667,13.646 c 0.249,0.443 0.705,0.729 1.211,0.763 0.032,0.002 0.064,0.003 0.096,0.003 0.472,0 0.918,-0.223 1.203,-0.604 l 5.575,-7.479 19.115,7.196 c 0.421,0.155 0.894,0.12 1.283,-0.108 0.39,-0.227 0.657,-0.617 0.727,-1.063 l 9.334,-59.4860001 c 0.093,-0.591 -0.172,-1.17799996 -0.674,-1.49799996 z M 4.6003527,40.626951 52.164353,8.8759509 l -35.195,37.2360001 -12.3690003,-5.485 z m 25.2040003,11.869 -4.871,6.534 -6.496,-11.561 37.111,-39.2610001 -25.744,44.2880001 z m 20.178,6.438 -17.278,-6.505 25.272,-44.4480001 -7.994,50.9530001 z"
     id="path7"
     inkscape:connector-curvature="0"
     style="fill:#bebebe;fill-opacity:1" /></svg>